<svg width="24" height="24" viewBox="0 0 24 24" fill="none" xmlns="http://www.w3.org/2000/svg">
<path d="M11.9951 2.5C8.26367 2.5 4.83313 4.20704 2.50197 6.83691C2.41011 6.93435 2.33874 7.04925 2.29212 7.1748C2.2455 7.30034 2.22456 7.43396 2.23056 7.56775C2.23655 7.70153 2.26935 7.83275 2.32702 7.95362C2.38469 8.07449 2.46604 8.18254 2.56625 8.27138C2.66647 8.36021 2.78351 8.42801 2.91042 8.47076C3.03733 8.51351 3.17154 8.53033 3.30508 8.52023C3.43862 8.51013 3.56877 8.47331 3.68781 8.41196C3.80685 8.35061 3.91235 8.26598 3.99807 8.16309C5.96691 5.94196 8.87661 4.5 11.9951 4.5C15.1137 4.5 18.0282 5.94251 20.002 8.16406C20.1781 8.36246 20.4258 8.48276 20.6906 8.49851C20.9555 8.51426 21.2157 8.42417 21.4141 8.24805C21.6125 8.07193 21.7328 7.82421 21.7485 7.55939C21.7643 7.29456 21.6742 7.03433 21.4981 6.83594C19.1619 4.20649 15.7266 2.5 11.9951 2.5ZM3.79592 11.4863C3.63934 11.4824 3.48404 11.5154 3.34253 11.5825C3.20101 11.6496 3.07724 11.749 2.98118 11.8727C2.88512 11.9965 2.81946 12.141 2.78949 12.2947C2.75951 12.4485 2.76607 12.6071 2.80861 12.7578C3.05263 13.673 3.46334 14.5263 3.99026 15.3057L2.86623 16.2266C2.76205 16.3089 2.67532 16.4112 2.6111 16.5275C2.54688 16.6437 2.50645 16.7716 2.49218 16.9036C2.47791 17.0357 2.49008 17.1692 2.52799 17.2965C2.56589 17.4238 2.62876 17.5422 2.71294 17.645C2.79711 17.7477 2.90091 17.8326 3.01826 17.8948C3.13561 17.957 3.26417 17.9952 3.39644 18.0071C3.52871 18.0191 3.66203 18.0046 3.78863 17.9645C3.91523 17.9243 4.03257 17.8594 4.13381 17.7734L5.36623 16.7646C5.8291 17.2018 6.30477 17.5951 6.85256 17.9365L6.09182 19.5801C6.03667 19.6993 6.00556 19.8283 6.00025 19.9596C5.99495 20.0909 6.01555 20.2219 6.06089 20.3453C6.10624 20.4686 6.17542 20.5818 6.26451 20.6784C6.35359 20.775 6.46083 20.8531 6.5801 20.9082C6.69937 20.9633 6.82833 20.9945 6.95962 20.9998C7.09091 21.0051 7.22196 20.9845 7.34529 20.9391C7.46862 20.8938 7.58181 20.8246 7.67839 20.7355C7.77498 20.6464 7.85308 20.5392 7.90822 20.4199L8.62795 18.8613C9.38532 19.1401 10.1735 19.3327 11 19.418V21C10.9981 21.1325 11.0226 21.2641 11.072 21.387C11.1215 21.51 11.1948 21.6219 11.2879 21.7163C11.3809 21.8107 11.4918 21.8856 11.614 21.9368C11.7363 21.9879 11.8675 22.0142 12 22.0142C12.1325 22.0142 12.2638 21.9879 12.386 21.9368C12.5083 21.8856 12.6191 21.8107 12.7122 21.7163C12.8052 21.6219 12.8786 21.51 12.928 21.387C12.9774 21.2641 13.0019 21.1325 13 21V19.418C13.8259 19.3321 14.613 19.1364 15.3701 18.8574L16.0918 20.4199C16.2032 20.6608 16.4057 20.8476 16.6548 20.9391C16.9038 21.0307 17.1791 21.0196 17.4199 20.9082C17.6608 20.7968 17.8476 20.5943 17.9391 20.3453C18.0307 20.0962 18.0196 19.8209 17.9082 19.5801L17.1465 17.9346C17.6942 17.5933 18.1689 17.1996 18.6319 16.7627L19.8662 17.7734C19.9675 17.8594 20.0848 17.9243 20.2114 17.9645C20.338 18.0046 20.4713 18.0191 20.6036 18.0071C20.7359 17.9952 20.8644 17.957 20.9818 17.8948C21.0991 17.8326 21.2029 17.7477 21.2871 17.645C21.3713 17.5422 21.4342 17.4238 21.4721 17.2965C21.51 17.1692 21.5221 17.0357 21.5079 16.9036C21.4936 16.7716 21.4532 16.6437 21.3889 16.5275C21.3247 16.4112 21.238 16.3089 21.1338 16.2266L20.0088 15.3047C20.5359 14.5257 20.9475 13.6728 21.1914 12.7578C21.2253 12.6309 21.2338 12.4986 21.2166 12.3684C21.1993 12.2382 21.1565 12.1126 21.0908 11.999C21.025 11.8853 20.9374 11.7857 20.8331 11.7058C20.7289 11.626 20.6099 11.5675 20.483 11.5336C20.3561 11.4997 20.2237 11.4912 20.0935 11.5085C19.9633 11.5258 19.8378 11.5685 19.7241 11.6343C19.6104 11.7001 19.5108 11.7877 19.431 11.892C19.3512 11.9963 19.2927 12.1153 19.2588 12.2422C18.4888 15.1304 15.4268 17.5 11.9951 17.5C8.56351 17.5 5.51171 15.132 4.74123 12.2422C4.68792 12.0302 4.56662 11.8415 4.3959 11.705C4.22518 11.5685 4.01444 11.4917 3.79592 11.4863Z" fill="#4F5561"/>
</svg>
