<svg width="24" height="24" viewBox="0 0 24 24" fill="none" xmlns="http://www.w3.org/2000/svg">
<path d="M21.4805 4.49024C21.2207 4.49798 20.9741 4.60656 20.793 4.79298L8.50002 17.0859L3.20705 11.793C3.11491 11.697 3.00454 11.6204 2.88241 11.5676C2.76028 11.5148 2.62885 11.4869 2.49581 11.4856C2.36277 11.4842 2.23079 11.5094 2.10762 11.5597C1.98444 11.61 1.87254 11.6844 1.77846 11.7784C1.68438 11.8725 1.61002 11.9844 1.55973 12.1076C1.50944 12.2308 1.48423 12.3628 1.48559 12.4958C1.48694 12.6288 1.51483 12.7603 1.56761 12.8824C1.62039 13.0045 1.69702 13.1149 1.79299 13.207L7.79299 19.207C7.98053 19.3945 8.23485 19.4998 8.50002 19.4998C8.76519 19.4998 9.01951 19.3945 9.20705 19.207L22.2071 6.20704C22.3516 6.06658 22.4503 5.88574 22.4902 5.68822C22.5302 5.4907 22.5095 5.28571 22.431 5.10013C22.3524 4.91454 22.2197 4.75701 22.0501 4.64818C21.8805 4.53935 21.6819 4.4843 21.4805 4.49024Z" fill="#4F5561"/>
</svg>
