<svg width="24" height="24" viewBox="0 0 24 24" fill="none" xmlns="http://www.w3.org/2000/svg">
<path d="M11.9854 2.48633C11.7203 2.49021 11.4677 2.59916 11.2829 2.78923C11.0981 2.9793 10.9964 3.23495 11 3.5V18.0859L5.70706 12.793C5.61491 12.697 5.50454 12.6204 5.38241 12.5676C5.26029 12.5148 5.12885 12.4869 4.99581 12.4856C4.86277 12.4842 4.7308 12.5094 4.60762 12.5597C4.48444 12.61 4.37254 12.6844 4.27846 12.7784C4.18438 12.8725 4.11002 12.9844 4.05973 13.1076C4.00944 13.2308 3.98423 13.3627 3.98559 13.4958C3.98694 13.6288 4.01483 13.7603 4.06761 13.8824C4.1204 14.0045 4.19702 14.1149 4.29299 14.207L11.293 21.207C11.4805 21.3945 11.7349 21.4998 12 21.4998C12.2652 21.4998 12.5195 21.3945 12.7071 21.207L19.7071 14.207C19.803 14.1149 19.8797 14.0045 19.9324 13.8824C19.9852 13.7603 20.0131 13.6288 20.0145 13.4958C20.0158 13.3627 19.9906 13.2308 19.9403 13.1076C19.89 12.9844 19.8157 12.8725 19.7216 12.7784C19.6275 12.6844 19.5156 12.61 19.3924 12.5597C19.2693 12.5094 19.1373 12.4842 19.0042 12.4856C18.8712 12.4869 18.7398 12.5148 18.6176 12.5676C18.4955 12.6204 18.3851 12.697 18.293 12.793L13 18.0859V3.5C13.0019 3.36629 12.9769 3.23358 12.9265 3.1097C12.8761 2.98583 12.8015 2.87331 12.7069 2.7788C12.6123 2.6843 12.4997 2.60972 12.3757 2.55948C12.2518 2.50925 12.1191 2.48437 11.9854 2.48633Z" fill="#4F5561"/>
</svg>
