<svg width="24" height="24" viewBox="0 0 24 24" fill="none" xmlns="http://www.w3.org/2000/svg">
<path d="M17.46 2.71484C16.4773 2.71484 15.4949 3.08716 14.751 3.83105L12.2031 6.37891C10.9658 7.61625 10.8189 9.48562 11.6396 10.9453L10.9453 11.6396C9.48555 10.8186 7.6154 10.9657 6.37792 12.2031L3.83007 14.751C2.34229 16.2388 2.34229 18.6821 3.83007 20.1699C5.31816 21.6573 7.76134 21.6576 9.24902 20.1699L11.7969 17.6221C13.0343 16.3846 13.1814 14.5144 12.3603 13.0547L13.0547 12.3604C14.5145 13.1809 16.3838 13.0341 17.6211 11.7969L20.1689 9.24902C21.6567 7.76124 21.6567 5.31884 20.1689 3.83105C19.425 3.08716 18.4426 2.71484 17.46 2.71484ZM17.46 4.70312C17.9266 4.70312 18.3933 4.88351 18.7549 5.24512C19.4781 5.96833 19.4781 7.11174 18.7549 7.83496L16.207 10.3828C15.7523 10.8376 15.1366 10.9735 14.5586 10.8564L15.8926 9.52246C15.9855 9.42955 16.0592 9.31924 16.1095 9.19785C16.1598 9.07645 16.1856 8.94634 16.1856 8.81494C16.1856 8.68354 16.1598 8.55343 16.1095 8.43203C16.0592 8.31064 15.9855 8.20033 15.8926 8.10742C15.7997 8.01451 15.6894 7.94081 15.568 7.89052C15.4466 7.84024 15.3164 7.81436 15.185 7.81436C15.0537 7.81436 14.9235 7.84024 14.8021 7.89052C14.6807 7.94081 14.5704 8.01451 14.4775 8.10742L13.1435 9.44141C13.0265 8.8634 13.1625 8.24765 13.6172 7.79297L16.165 5.24512C16.5266 4.88351 16.9933 4.70312 17.46 4.70312ZM9.08788 13.0752C9.20767 13.0752 9.32241 13.1207 9.44042 13.1445L8.10741 14.4775C8.0145 14.5705 7.9408 14.6808 7.89051 14.8022C7.84023 14.9235 7.81435 15.0537 7.81435 15.1851C7.81435 15.3165 7.84023 15.4466 7.89051 15.568C7.9408 15.6894 8.0145 15.7997 8.10741 15.8926C8.20033 15.9855 8.31063 16.0592 8.43203 16.1095C8.55342 16.1598 8.68354 16.1856 8.81493 16.1856C8.94633 16.1856 9.07644 16.1598 9.19784 16.1095C9.31924 16.0592 9.42954 15.9855 9.52245 15.8926L10.8555 14.5596C10.9721 15.1373 10.8372 15.7526 10.3828 16.207L7.83398 18.7559C7.11065 19.4792 5.96804 19.4785 5.24413 18.7549C4.52152 18.0316 4.52112 16.889 5.24413 16.166L7.79296 13.6172C8.15457 13.2556 8.62124 13.0752 9.08788 13.0752Z" fill="#4F5561"/>
</svg>
