<svg width="28" height="28" viewBox="0 0 28 28" fill="none" xmlns="http://www.w3.org/2000/svg">
<path d="M7 3.5C5.08081 3.5 3.5 5.08081 3.5 7V21C3.5 22.9192 5.08081 24.5 7 24.5H16.9167C18.536 24.5 19.9775 23.4386 20.3802 21.8739C20.4184 21.7254 20.4269 21.571 20.4054 21.4192C20.3838 21.2675 20.3326 21.1215 20.2546 20.9896C20.1766 20.8577 20.0734 20.7424 19.9509 20.6503C19.8284 20.5583 19.6889 20.4913 19.5405 20.4531C19.3921 20.415 19.2376 20.4064 19.0859 20.428C18.9342 20.4495 18.7882 20.5007 18.6563 20.5787C18.5243 20.6567 18.409 20.7599 18.317 20.8824C18.225 21.0049 18.1579 21.1444 18.1198 21.2928C18.0045 21.7405 17.472 22.1667 16.9167 22.1667H7C6.34202 22.1667 5.83333 21.658 5.83333 21V7C5.83333 6.34202 6.34202 5.83333 7 5.83333H16.9167C17.472 5.83333 18.0045 6.25946 18.1198 6.70719C18.1579 6.85561 18.225 6.99507 18.317 7.11759C18.409 7.24011 18.5243 7.34331 18.6563 7.42128C18.7882 7.49925 18.9342 7.55047 19.0859 7.57202C19.2376 7.59357 19.3921 7.58503 19.5405 7.54688C19.6889 7.50872 19.8284 7.44171 19.9509 7.34966C20.0734 7.25762 20.1766 7.14234 20.2546 7.01041C20.3326 6.87848 20.3838 6.73249 20.4054 6.58077C20.4269 6.42904 20.4184 6.27456 20.3802 6.12614C19.9775 4.56137 18.536 3.5 16.9167 3.5H7ZM19.8208 9.32194C19.5888 9.32223 19.3622 9.39167 19.1698 9.52138C18.9775 9.6511 18.8282 9.83522 18.741 10.0502C18.6538 10.2652 18.6327 10.5013 18.6803 10.7283C18.728 10.9554 18.8422 11.1631 19.0085 11.3249L20.5169 12.8333H9.91667C9.76207 12.8311 9.60858 12.8597 9.46512 12.9174C9.32165 12.975 9.19108 13.0606 9.08098 13.1691C8.97088 13.2777 8.88346 13.407 8.82378 13.5497C8.76411 13.6923 8.73338 13.8454 8.73338 14C8.73338 14.1546 8.76411 14.3077 8.82378 14.4503C8.88346 14.593 8.97088 14.7223 9.08098 14.8309C9.19108 14.9394 9.32165 15.025 9.46512 15.0826C9.60858 15.1403 9.76207 15.1689 9.91667 15.1667H20.5169L19.0085 16.6751C18.8965 16.7826 18.8071 16.9114 18.7455 17.0539C18.6839 17.1964 18.6514 17.3497 18.6498 17.5049C18.6482 17.6601 18.6776 17.8141 18.7363 17.9578C18.795 18.1015 18.8817 18.2321 18.9915 18.3418C19.1013 18.4516 19.2318 18.5383 19.3755 18.597C19.5192 18.6557 19.6732 18.6851 19.8284 18.6835C19.9836 18.6819 20.137 18.6494 20.2795 18.5878C20.4219 18.5262 20.5507 18.4368 20.6582 18.3249L24.1582 14.8249C24.3769 14.6061 24.4998 14.3094 24.4998 14C24.4998 13.6906 24.3769 13.3939 24.1582 13.1751L20.6582 9.67513C20.5493 9.56323 20.4191 9.47432 20.2753 9.41365C20.1315 9.35298 19.9769 9.3218 19.8208 9.32194Z" fill="#4F5561"/>
</svg>
