<svg width="30" height="34" viewBox="0 0 30 34" fill="none" xmlns="http://www.w3.org/2000/svg">
<g clip-path="url(#clip0_162_198)">
<path d="M14.6318 10.3682L6.50006 18.4999L14.6318 26.6317L22.7635 18.4999L14.6318 10.3682Z" fill="#FBB03B"/>
<path d="M29.9997 4.00001L26.3809 0.381256L11.9996 15.25L26.2497 29.5V22.75L18.7497 15.25L29.9997 4.00001Z" fill="#808080"/>
<path d="M3.53534 18.5L14.849 7.18631L25.1021 17.4393C25.6879 18.0251 25.6879 18.9749 25.1021 19.5607L15.9097 28.7531C15.3239 29.3389 14.3742 29.3389 13.7883 28.7531L3.53534 18.5Z" stroke="#ED1C24" stroke-width="5"/>
<g filter="url(#filter0_d_162_198)">
<path d="M29.9997 4.00001L26.3809 0.381256L11.9996 15.25L26.2497 29.5V22.75L18.7497 15.25L29.9997 4.00001Z" fill="#808080"/>
</g>
<rect x="14.4186" y="10.1317" width="4.77252" height="11.4753" transform="rotate(-45 14.4186 10.1317)" fill="#ED1C24"/>
</g>
<defs>
<filter id="filter0_d_162_198" x="5.99963" y="-3.61874" width="30.0001" height="41.1188" filterUnits="userSpaceOnUse" color-interpolation-filters="sRGB">
<feFlood flood-opacity="0" result="BackgroundImageFix"/>
<feColorMatrix in="SourceAlpha" type="matrix" values="0 0 0 0 0 0 0 0 0 0 0 0 0 0 0 0 0 0 127 0" result="hardAlpha"/>
<feOffset dy="2"/>
<feGaussianBlur stdDeviation="3"/>
<feComposite in2="hardAlpha" operator="out"/>
<feColorMatrix type="matrix" values="0 0 0 0 0 0 0 0 0 0 0 0 0 0 0 0 0 0 0.1 0"/>
<feBlend mode="normal" in2="BackgroundImageFix" result="effect1_dropShadow_162_198"/>
<feBlend mode="normal" in="SourceGraphic" in2="effect1_dropShadow_162_198" result="shape"/>
</filter>
<clipPath id="clip0_162_198">
<rect width="30" height="33.913" fill="white"/>
</clipPath>
</defs>
</svg>
