<svg width="24" height="24" viewBox="0 0 24 24" fill="none" xmlns="http://www.w3.org/2000/svg">
<path d="M21.3305 11.741L20.575 10.986C20.343 10.754 20.28 10.399 20.419 10.1015L20.8705 9.134C21.1855 8.4595 21.1515 7.6725 20.7785 7.0275C20.4065 6.383 19.742 5.9595 19 5.895L17.9355 5.8025C17.609 5.774 17.3325 5.542 17.248 5.225L16.972 4.1935C16.7795 3.4745 16.2475 2.893 15.5475 2.6385C14.848 2.384 14.067 2.487 13.4575 2.914L12.5825 3.527C12.582 3.527 12.582 3.527 12.582 3.527C12.3135 3.715 11.953 3.715 11.6845 3.527L10.81 2.914C10.2005 2.487 9.41998 2.384 8.71948 2.6385C8.01998 2.893 7.48748 3.4745 7.29498 4.1935L7.01898 5.2255C6.93448 5.542 6.65798 5.774 6.33148 5.8025L5.26698 5.895C4.52548 5.9595 3.86048 6.383 3.48798 7.0275C3.11598 7.672 3.08148 8.4595 3.39648 9.1335L3.84798 10.1015C3.98698 10.3985 3.92398 10.754 3.69198 10.986L2.93698 11.7405C2.40998 12.2665 2.17298 13.0185 2.30198 13.751C2.43098 14.484 2.91098 15.1095 3.58548 15.4235L4.55398 15.875C4.85148 16.0135 5.03148 16.3255 5.00248 16.6525L4.90898 17.716C4.84348 18.4575 5.14548 19.1855 5.71498 19.664C6.28498 20.1425 7.05448 20.313 7.77348 20.12L8.80498 19.843C9.12198 19.759 9.46098 19.881 9.64848 20.15L10.261 21.025C10.6915 21.636 11.3905 22 12.1355 22C12.8795 22 13.579 21.636 14.0055 21.026L14.618 20.1505C14.806 19.8815 15.146 19.7595 15.4615 19.8435L16.493 20.1205C17.2115 20.313 17.981 20.143 18.551 19.6645C19.1215 19.186 19.423 18.4575 19.3575 17.7165L19.264 16.652C19.235 16.3255 19.4155 16.0135 19.713 15.8745L20.6805 15.4235C21.356 15.1095 21.836 14.484 21.9645 13.751C22.094 13.0185 21.857 12.267 21.3305 11.741ZM16.2805 10.2805L11.2805 15.2805C11.134 15.427 10.942 15.5 10.75 15.5C10.558 15.5 10.366 15.427 10.2195 15.2805L7.71948 12.7805C7.42648 12.488 7.42648 12.0125 7.71948 11.72C8.01248 11.427 8.48698 11.427 8.77998 11.72L10.7495 13.6895L15.219 9.22C15.512 8.927 15.9865 8.927 16.2795 9.22C16.573 9.5125 16.573 9.9875 16.2805 10.2805Z" fill="#4F5561"/>
</svg>
