<svg width="28" height="28" viewBox="0 0 28 28" fill="none" xmlns="http://www.w3.org/2000/svg">
<path d="M14 2.33333C10.7835 2.33333 8.16669 4.95016 8.16669 8.16666C8.16669 11.3832 10.7835 14 14 14C17.2165 14 19.8334 11.3832 19.8334 8.16666C19.8334 4.95016 17.2165 2.33333 14 2.33333ZM20.4167 14C16.8729 14 14 16.8729 14 20.4167C14 23.9604 16.8729 26.8333 20.4167 26.8333C23.9604 26.8333 26.8334 23.9604 26.8334 20.4167C26.8334 16.8729 23.9604 14 20.4167 14ZM7.29169 16.3333C5.84444 16.3333 4.66669 17.5111 4.66669 18.9583V19.6579C4.66669 23.0272 8.76635 25.6667 14 25.6667C14.3133 25.6667 14.6218 25.6557 14.9263 25.637C13.633 24.2767 12.8334 22.442 12.8334 20.4167C12.8334 18.9117 13.2771 17.5128 14.0331 16.3333H7.29169ZM23.9167 17.5C24.0659 17.5 24.2151 17.5569 24.3291 17.6709C24.5572 17.899 24.5572 18.2677 24.3291 18.4958L19.6625 23.1624C19.5487 23.2762 19.3994 23.3333 19.25 23.3333C19.1007 23.3333 18.9513 23.2762 18.8376 23.1624L16.5043 20.8291C16.2762 20.601 16.2762 20.2323 16.5043 20.0042C16.7323 19.7761 17.101 19.7761 17.3291 20.0042L19.25 21.9251L23.5042 17.6709C23.6183 17.5569 23.7675 17.5 23.9167 17.5Z" fill="#4F5561"/>
</svg>
