<svg width="28" height="28" viewBox="0 0 28 28" fill="none" xmlns="http://www.w3.org/2000/svg">
<path d="M14 2.33333C7.56704 2.33333 2.33337 7.567 2.33337 14C2.33337 20.433 7.56704 25.6667 14 25.6667C20.433 25.6667 25.6667 20.433 25.6667 14C25.6667 7.567 20.433 2.33333 14 2.33333ZM14 21C13.3555 21 12.8334 20.4779 12.8334 19.8333C12.8334 19.1887 13.3555 18.6667 14 18.6667C14.6446 18.6667 15.1667 19.1887 15.1667 19.8333C15.1667 20.4779 14.6446 21 14 21ZM15.7442 14.5699C15.1655 15.0208 14.875 15.2472 14.875 16.0417C14.875 16.5252 14.4836 16.9167 14 16.9167C13.5165 16.9167 13.125 16.5252 13.125 16.0417C13.125 14.392 14.017 13.6972 14.6685 13.1897C15.2962 12.7003 15.75 12.3468 15.75 11.0833C15.75 10.1185 14.9649 9.33333 14 9.33333C13.0352 9.33333 12.25 10.1185 12.25 11.0833V11.375C12.25 11.8586 11.8586 12.25 11.375 12.25C10.8915 12.25 10.5 11.8586 10.5 11.375V11.0833C10.5 9.15308 12.0698 7.58333 14 7.58333C15.9303 7.58333 17.5 9.15308 17.5 11.0833C17.5 13.2014 16.485 13.9924 15.7442 14.5699Z" fill="#4F5561"/>
</svg>
