<svg width="28" height="28" viewBox="0 0 28 28" fill="none" xmlns="http://www.w3.org/2000/svg">
<path d="M24.5 8.16667V7.29167C24.5 5.201 22.799 3.5 20.7083 3.5H7.29167C5.201 3.5 3.5 5.201 3.5 7.29167V8.16667H24.5ZM3.5 9.91667V20.7083C3.5 22.799 5.201 24.5 7.29167 24.5H20.7083C22.799 24.5 24.5 22.799 24.5 20.7083V9.91667H3.5ZM13.125 12.5417C13.125 12.0581 13.517 11.6667 14 11.6667C14.483 11.6667 14.875 12.0581 14.875 12.5417V17.2083C14.875 17.6919 14.483 18.0833 14 18.0833C13.517 18.0833 13.125 17.6919 13.125 17.2083V12.5417ZM14 21.5833C13.3554 21.5833 12.8333 21.0613 12.8333 20.4167C12.8333 19.7721 13.3554 19.25 14 19.25C14.6446 19.25 15.1667 19.7721 15.1667 20.4167C15.1667 21.0613 14.6446 21.5833 14 21.5833Z" fill="#4F5561"/>
</svg>
