<svg width="28" height="28" viewBox="0 0 28 28" fill="none" xmlns="http://www.w3.org/2000/svg">
<path d="M14 3.5C13.0717 3.5 12.1815 3.86875 11.5251 4.52513C10.8687 5.1815 10.5 6.07174 10.5 7C10.5 7.92826 10.8687 8.8185 11.5251 9.47487C12.1815 10.1313 13.0717 10.5 14 10.5C14.9282 10.5 15.8185 10.1313 16.4749 9.47487C17.1312 8.8185 17.5 7.92826 17.5 7C17.5 6.07174 17.1312 5.1815 16.4749 4.52513C15.8185 3.86875 14.9282 3.5 14 3.5ZM6.41665 4.66667C5.6431 4.66667 4.90123 4.97396 4.35425 5.52094C3.80727 6.06792 3.49998 6.80979 3.49998 7.58333C3.49998 8.35688 3.80727 9.09875 4.35425 9.64573C4.90123 10.1927 5.6431 10.5 6.41665 10.5C7.19019 10.5 7.93206 10.1927 8.47904 9.64573C9.02602 9.09875 9.33331 8.35688 9.33331 7.58333C9.33331 6.80979 9.02602 6.06792 8.47904 5.52094C7.93206 4.97396 7.19019 4.66667 6.41665 4.66667ZM21.5833 4.66667C20.8098 4.66667 20.0679 4.97396 19.5209 5.52094C18.9739 6.06792 18.6666 6.80979 18.6666 7.58333C18.6666 8.35688 18.9739 9.09875 19.5209 9.64573C20.0679 10.1927 20.8098 10.5 21.5833 10.5C22.3569 10.5 23.0987 10.1927 23.6457 9.64573C24.1927 9.09875 24.5 8.35688 24.5 7.58333C24.5 6.80979 24.1927 6.06792 23.6457 5.52094C23.0987 4.97396 22.3569 4.66667 21.5833 4.66667ZM7.58331 19.25V13.7083C7.58331 12.9337 7.85981 12.222 8.3189 11.6667H4.37498C3.24915 11.6667 2.33331 12.5825 2.33331 13.7083V17.5C2.33331 20.0725 4.42748 22.1667 6.99998 22.1667C7.41415 22.1667 7.81665 22.1142 8.20165 22.0092C8.20165 22.0092 8.20806 22.0063 8.21331 22.0045C7.81373 21.1686 7.58331 20.2364 7.58331 19.25ZM20.4166 19.25V13.7083C20.4166 12.9337 20.1401 12.222 19.6811 11.6667H23.625C24.7508 11.6667 25.6666 12.5825 25.6666 13.7083V17.5C25.6666 20.0725 23.5725 22.1667 21 22.1667C20.5858 22.1667 20.1833 22.1142 19.7983 22.0092C19.7983 22.0092 19.7919 22.0063 19.7866 22.0045C20.1862 21.1686 20.4166 20.2364 20.4166 19.25ZM17.2083 11.6667H15.1596C15.1596 11.7273 15.1538 11.7892 15.1281 11.8463L14.6031 13.013C14.5979 13.0241 14.5897 13.0328 14.5833 13.0439C14.5845 13.0509 14.5891 13.0568 14.5903 13.0638L15.162 17.0742C15.1783 17.1902 15.1474 17.3087 15.0756 17.4026L14.3465 18.3505C14.2642 18.4578 14.1359 18.5208 14 18.5208C13.8641 18.5208 13.7357 18.4578 13.6535 18.3499L12.9243 17.402C12.852 17.3087 12.8211 17.1902 12.838 17.0736L13.4096 13.0632C13.4108 13.0556 13.4155 13.0503 13.4166 13.0433C13.4108 13.0328 13.4021 13.0241 13.3968 13.0124L12.8718 11.8457C12.8461 11.7886 12.8403 11.7279 12.8403 11.6667H10.7916C9.66581 11.6667 8.74998 12.5819 8.74998 13.7078V19.25C8.74998 22.1445 11.1055 24.5 14 24.5C16.8945 24.5 19.25 22.1445 19.25 19.25V13.7083C19.25 12.5825 18.3341 11.6667 17.2083 11.6667Z" fill="#4F5561"/>
</svg>
