<svg width="28" height="28" viewBox="0 0 28 28" fill="none" xmlns="http://www.w3.org/2000/svg">
<path d="M14 2.33333C12.4529 2.33333 10.9691 2.94791 9.87517 4.04187C8.78121 5.13583 8.16663 6.61957 8.16663 8.16666C8.16663 9.71376 8.78121 11.1975 9.87517 12.2915C10.9691 13.3854 12.4529 14 14 14C15.5471 14 17.0308 13.3854 18.1247 12.2915C19.2187 11.1975 19.8333 9.71376 19.8333 8.16666C19.8333 6.61957 19.2187 5.13583 18.1247 4.04187C17.0308 2.94791 15.5471 2.33333 14 2.33333ZM21.0122 16.3333H6.98771C5.70788 16.3333 4.66663 17.3746 4.66663 18.6544V19.5417C4.66663 21.4737 5.76621 23.1443 7.76238 24.2451C9.42313 25.1621 11.6386 25.6667 14 25.6667C18.4951 25.6667 23.3333 23.7498 23.3333 19.5417V18.6544C23.3333 17.3746 22.292 16.3333 21.0122 16.3333Z" fill="#4F5561"/>
</svg>
